<?xml version="1.0" encoding="UTF-8"?>
<svg version="1.1" xmlns="http://www.w3.org/2000/svg" width="600" height="572">
<path d="M0 0 C0.90363281 0.70769531 1.80726563 1.41539063 2.73828125 2.14453125 C26.41921969 21.05419913 45.76698344 43.48211155 62 69 C62.37044434 69.57331055 62.74088867 70.14662109 63.12255859 70.73730469 C81.75570085 99.72584245 93.02962412 133.19419444 99 167 C99.17499023 167.98178223 99.34998047 168.96356445 99.53027344 169.97509766 C110.40830074 234.37086522 94.96658344 306.92615355 57.20703125 360.31396484 C51.12426349 368.81064651 44.69494257 376.97921774 38 385 C37.55865723 385.53302734 37.11731445 386.06605469 36.66259766 386.61523438 C28.6424186 396.29679648 20.467105 404.97360813 10.63671875 412.859375 C8.46411332 414.62320874 6.38149425 416.43076572 4.3125 418.3125 C-9.88358403 430.78086589 -25.86786216 440.9687323 -42.625 449.625 C-43.25148438 449.9559668 -43.87796875 450.28693359 -44.5234375 450.62792969 C-50.43685325 453.57516094 -56.00452355 453.87530447 -62.5 454.3125 C-67.10241926 454.82299364 -71.27514204 456.18625838 -75 459 C-75.29100586 459.64283936 -75.58201172 460.28567871 -75.88183594 460.94799805 C-78.42060148 465.60702084 -84.83491932 467.03261742 -89.63671875 468.5625 C-91.31704444 469.05300402 -93.00084935 469.53170716 -94.6875 470 C-95.59669189 470.25491211 -96.50588379 470.50982422 -97.44262695 470.77246094 C-103.81174893 472.51004199 -110.20699841 473.99228911 -116.6875 475.25 C-117.45602295 475.40082031 -118.2245459 475.55164063 -119.01635742 475.70703125 C-134.68044054 478.57235328 -150.23493099 479.37660402 -166.125 479.3125 C-167.53815491 479.30976578 -167.53815491 479.30976578 -168.9798584 479.30697632 C-183.51149768 479.25974372 -197.68193943 478.66295648 -212 476 C-212.8981543 475.8443457 -213.79630859 475.68869141 -214.72167969 475.52832031 C-263.86506388 466.84984464 -310.10659714 443.77469086 -346.765625 410.05078125 C-348.85166886 408.13614309 -350.97682046 406.28177042 -353.125 404.4375 C-360.92021549 397.61082831 -367.60343598 390.14151255 -374 382 C-374.48629883 381.38479492 -374.97259766 380.76958984 -375.47363281 380.13574219 C-403.44404792 344.62744853 -421.63261861 305.66057724 -430.75 261.3125 C-431.04837769 259.87173096 -431.04837769 259.87173096 -431.3527832 258.40185547 C-434.412141 242.73888851 -435.41217162 227.11948339 -435.375 211.1875 C-435.37445618 210.3001416 -435.37391235 209.4127832 -435.37335205 208.49853516 C-435.32832957 192.3941751 -434.09159566 176.8396568 -431 161 C-430.79632813 159.95070312 -430.59265625 158.90140625 -430.3828125 157.8203125 C-423.69870085 124.72983383 -411.23344398 91.87646801 -392 64 C-391.58121582 63.38882324 -391.16243164 62.77764648 -390.73095703 62.14794922 C-385.46991481 54.51635029 -379.93108122 47.12583139 -374 40 C-373.57525391 39.48501953 -373.15050781 38.97003906 -372.71289062 38.43945312 C-361.90807535 25.37918981 -350.34530382 13.48430246 -337 3 C-335.88173817 2.0718662 -334.76598878 1.14069962 -333.65234375 0.20703125 C-256.25140279 -64.16561144 -143.32452717 -74.54999859 0 0 Z " fill="#E25F21" transform="translate(466,70)"/>
<path d="M0 0 C23.97334775 -0.02332624 47.94669382 -0.04097782 71.92005062 -0.05181217 C83.05046403 -0.05697571 94.1808704 -0.06401952 105.3112793 -0.07543945 C115.00880216 -0.08538451 124.70631993 -0.091853 134.40384775 -0.09408849 C139.54197829 -0.0953959 144.68009426 -0.09848366 149.81822014 -0.10573006 C154.64849446 -0.11248747 159.47874812 -0.11461753 164.30902672 -0.11310768 C166.08725853 -0.11338414 167.86549098 -0.1153909 169.64371872 -0.11920547 C172.06063636 -0.12413838 174.47747467 -0.1229998 176.89439392 -0.12025452 C177.60741557 -0.12316736 178.32043721 -0.1260802 179.05506557 -0.12908131 C183.88587879 -0.11412121 183.88587879 -0.11412121 185 1 C185 14.86 185 28.72 185 43 C138.14 43 91.28 43 43 43 C43 66.1 43 89.2 43 113 C44.65 113.33 46.3 113.66 48 114 C50.10339584 115.17988652 52.16354988 116.43850004 54.1875 117.75 C58.96511689 120.79994791 63.80319582 123.4583268 68.9140625 125.90625 C71.55098744 127.28890727 73.70818196 129.11262043 76 131 C78.11280345 131.63292383 78.11280345 131.63292383 80 132 C80.66 132.66 81.32 133.32 82 134 C83.7103951 134.7236287 85.42172459 135.44525097 87.140625 136.1484375 C89.96376286 137.44138719 92.41999206 139.27999471 95 141 C96.7128401 141.73793089 98.42637439 142.47440675 100.14682007 143.19442749 C102.99846681 144.43403093 105.716946 145.89579737 108.45703125 147.36328125 C109.33883308 147.83497993 109.33883308 147.83497993 110.2384491 148.31620789 C111.4736101 148.97786071 112.70800306 149.64094915 113.94165039 150.30541992 C115.79554545 151.30337335 117.6524361 152.29556563 119.50976562 153.28710938 C126.45391929 157.00760146 133.29404417 160.8612512 140 165 C138.76490746 169.0853061 137.23899954 172.38315459 135 176 C133.62886553 178.64822 132.30963206 181.32090497 131 184 C130.34 184 129.68 184 129 184 C128.89582764 184.87309814 128.79165527 185.74619629 128.68432617 186.64575195 C127.96323973 190.18018171 126.8407011 192.55041217 125.05078125 195.66796875 C124.44943359 196.72693359 123.84808594 197.78589844 123.22851562 198.87695312 C122.59623047 199.96943359 121.96394531 201.06191406 121.3125 202.1875 C120.0788645 204.34733502 118.84578725 206.50748899 117.61328125 208.66796875 C117.00798584 209.72346924 116.40269043 210.77896973 115.77905273 211.86645508 C113.56260513 215.77040802 111.41961851 219.71180041 109.27954102 223.65795898 C107.84432442 226.28494482 106.35643807 228.87291939 104.8125 231.4375 C104.34457031 232.21996094 103.87664062 233.00242187 103.39453125 233.80859375 C102 236 102 236 100.390625 238.12109375 C98.78393214 240.29193438 97.98786621 242.49740559 97 245 C96.34 245.66 95.68 246.32 95 247 C94.27440752 248.66532831 93.55279217 250.33262232 92.86083984 252.01220703 C91.38215674 255.42668174 89.58613486 258.66926505 87.8125 261.9375 C87.44447266 262.62134766 87.07644531 263.30519531 86.69726562 264.00976562 C85.80081596 265.67460072 84.90078477 267.33750649 84 269 C83.34 269 82.68 269 82 269 C81.67 270.98 81.34 272.96 81 275 C80.34 275 79.68 275 79 275 C78.67 275.99 78.34 276.98 78 278 C74.00250361 276.50651157 70.35845506 274.62432495 66.625 272.5625 C61.48018096 269.74591151 61.48018096 269.74591151 56.125 267.375 C52.89999589 265.95599819 50.42796419 264.25352788 47.67578125 262.0859375 C45.74618846 260.70701501 45.74618846 260.70701501 42 260 C42 277.82 42 295.64 42 314 C28.47 314 14.94 314 1 314 C1 251.63 1 189.26 1 125 C0.34 125 -0.32 125 -1 125 C-1 125.66 -1 126.32 -1 127 C-3.1171875 128.7265625 -3.1171875 128.7265625 -5.875 130.625 C-6.77992188 131.25664062 -7.68484375 131.88828125 -8.6171875 132.5390625 C-11 134 -11 134 -13 134 C-13 134.66 -13 135.32 -13 136 C-15.97 136.99 -15.97 136.99 -19 138 C-23.82622163 132.62106736 -28.33995489 127.08344066 -32.6875 121.3125 C-33.79507515 119.84988334 -34.90313589 118.38763427 -36.01171875 116.92578125 C-36.52395996 116.24725098 -37.03620117 115.5687207 -37.56396484 114.86962891 C-38.80521734 113.25359497 -40.09565494 111.6755623 -41.39453125 110.10546875 C-43 108 -43 108 -43 106 C-43.66 106 -44.32 106 -45 106 C-45.33 104.68 -45.66 103.36 -46 102 C-46.66 102 -47.32 102 -48 102 C-48.33 100.68 -48.66 99.36 -49 98 C-49.66 98 -50.32 98 -51 98 C-51.33 96.68 -51.66 95.36 -52 94 C-52.66 94 -53.32 94 -54 94 C-54.99 91.03 -54.99 91.03 -56 88 C-56.66 88 -57.32 88 -58 88 C-58 87.34 -58 86.68 -58 86 C-58.66 86 -59.32 86 -60 86 C-60.33 84.68 -60.66 83.36 -61 82 C-61.66 82 -62.32 82 -63 82 C-63.474375 81.0925 -63.94875 80.185 -64.4375 79.25 C-69.94661371 69.33329984 -69.94661371 69.33329984 -78 62 C-78 61.01 -78 60.02 -78 59 C-76.02 58.505 -76.02 58.505 -74 58 C-74 57.34 -74 56.68 -74 56 C-72.02 55.505 -72.02 55.505 -70 55 C-70 54.34 -70 53.68 -70 53 C-68.02 52.505 -68.02 52.505 -66 52 C-66 51.34 -66 50.68 -66 50 C-64.02 49.505 -64.02 49.505 -62 49 C-62 48.34 -62 47.68 -62 47 C-60.02 46.505 -60.02 46.505 -58 46 C-58 45.34 -58 44.68 -58 44 C-55.92688536 42.39901074 -53.85008029 40.90886877 -51.6875 39.4375 C-47.05862219 36.21896509 -42.58190318 32.92967023 -38.25 29.3125 C-24.6629226 18 -24.6629226 18 -21 18 C-21 17.34 -21 16.68 -21 16 C-19.68 15.67 -18.36 15.34 -17 15 C-17 14.34 -17 13.68 -17 13 C-15.68 12.67 -14.36 12.34 -13 12 C-13 11.34 -13 10.68 -13 10 C-11.68 9.67 -10.36 9.34 -9 9 C-9 8.34 -9 7.68 -9 7 C-7.68 6.67 -6.36 6.34 -5 6 C-5 5.34 -5 4.68 -5 4 C-4.0409375 3.8453125 -4.0409375 3.8453125 -3.0625 3.6875 C-2.381875 3.460625 -1.70125 3.23375 -1 3 C-0.67 2.01 -0.34 1.02 0 0 Z " fill="#020405" transform="translate(260,147)"/>
<path d="M0 0 C9.219375 -0.020625 18.43875 -0.04125 27.9375 -0.0625 C32.30923462 -0.07615601 32.30923462 -0.07615601 36.76928711 -0.09008789 C39.06363885 -0.09300681 41.35799111 -0.09555543 43.65234375 -0.09765625 C44.85636841 -0.10277222 46.06039307 -0.10788818 47.30090332 -0.11315918 C48.4377356 -0.11328003 49.57456787 -0.11340088 50.74584961 -0.11352539 C51.73846298 -0.115746 52.73107635 -0.11796661 53.75376892 -0.12025452 C56 0 56 0 57 1 C57.09439978 3.26991887 57.11742226 5.54281967 57.11352539 7.81469727 C57.11367142 8.52685394 57.11381744 9.23901062 57.1139679 9.9727478 C57.1132687 12.33733112 57.10547606 14.70183661 57.09765625 17.06640625 C57.09579209 18.70165463 57.09436818 20.33690357 57.09336853 21.97215271 C57.08954318 26.28434785 57.07971275 30.59650952 57.06866455 34.90869141 C57.05665627 40.0781968 57.05204827 45.24771336 57.04621124 50.4172287 C57.036501 58.27817577 57.01734458 66.13904935 57 74 C38.19 74 19.38 74 0 74 C0 49.58 0 25.16 0 0 Z " fill="#000405" transform="translate(235,61)"/>
<path d="M0 0 C4.1428084 0.82856168 6.00964833 1.35560782 9.43359375 3.3984375 C10.24763672 3.87796875 11.06167969 4.3575 11.90039062 4.8515625 C12.73763672 5.35429687 13.57488281 5.85703125 14.4375 6.375 C16.10190237 7.36360094 17.76724614 8.35061891 19.43359375 9.3359375 C20.21847168 9.8009668 21.00334961 10.26599609 21.81201172 10.74511719 C23.66194949 11.80611698 25.56305605 12.77713248 27.47265625 13.7265625 C30 15 30 15 32 17 C34.31808364 18.03485877 36.65175298 19.0355414 39 20 C39.66 20.33 40.32 20.66 41 21 C40.43676983 24.47628084 39.59357362 27.09314006 37.8125 30.125 C37.36390625 30.90359375 36.9153125 31.6821875 36.453125 32.484375 C35.97359375 33.31453125 35.4940625 34.1446875 35 35 C34.01562503 36.78881042 33.03661326 38.58058083 32.0625 40.375 C31.55847656 41.29925781 31.05445313 42.22351563 30.53515625 43.17578125 C29.51846336 45.04618573 28.50538951 46.91856233 27.49609375 48.79296875 C25.0499107 53.3212815 22.55090499 57.7904099 19.875 62.1875 C16.94077582 67.02438517 14.42497365 71.98735886 12.0078125 77.09765625 C10.50620035 80.21146439 9.11681234 82.85486952 6.9375 85.5625 C4.55038948 88.56563904 3.39741892 91.43658175 2 95 C1.34 95 0.68 95 0 95 C0 63.65 0 32.3 0 0 Z " fill="#DE5E22" transform="translate(302,307)"/>
<path d="M0 0 C0.88594849 0.29910278 0.88594849 0.29910278 1.78979492 0.60424805 C0.5016615 1.4430326 -0.79083764 2.27511588 -2.08520508 3.10424805 C-2.80450195 3.56831055 -3.52379883 4.03237305 -4.26489258 4.51049805 C-6.21020508 5.60424805 -6.21020508 5.60424805 -8.21020508 5.60424805 C-8.21020508 6.26424805 -8.21020508 6.92424805 -8.21020508 7.60424805 C-8.95850586 7.97163086 -8.95850586 7.97163086 -9.72192383 8.34643555 C-26.34423735 17.00078191 -39.80009869 31.00673613 -52.92993164 44.13867188 C-54.46849866 45.67502972 -56.01495472 47.20315085 -57.56176758 48.73120117 C-63.55807657 54.69315507 -69.11580533 60.84106976 -74.21020508 67.60424805 C-74.67974609 68.22517334 -75.14928711 68.84609863 -75.63305664 69.48583984 C-95.23928637 95.84827036 -110.29062079 125.97898131 -119.21020508 157.60424805 C-119.39921387 158.26666504 -119.58822266 158.92908203 -119.78295898 159.61157227 C-122.14091773 168.01459599 -123.8447921 176.52020773 -125.39770508 185.10424805 C-125.5647998 186.00498047 -125.73189453 186.90571289 -125.90405273 187.83374023 C-128.17139576 200.9334255 -128.37984352 214.19845904 -128.34057617 227.45874023 C-128.33520653 229.60366881 -128.34057212 231.74838813 -128.34692383 233.89331055 C-128.35408895 246.15431404 -128.31638637 258.62101306 -125.83520508 270.66674805 C-125.63568237 271.65058472 -125.63568237 271.65058472 -125.43212891 272.65429688 C-125.02928688 274.63852585 -124.61983351 276.62140896 -124.21020508 278.60424805 C-123.99493164 279.79276367 -123.7796582 280.9812793 -123.55786133 282.20581055 C-119.30987098 305.28069303 -111.72185999 327.70049265 -100.77661133 348.4519043 C-99.54779094 350.92486701 -98.68672782 352.91290128 -98.21020508 355.60424805 C-101.21020508 354.60424805 -101.21020508 354.60424805 -103.12036133 351.3347168 C-103.85360874 349.82798071 -104.56963219 348.31279832 -105.27270508 346.79174805 C-105.66119629 345.95571045 -106.0496875 345.11967285 -106.44995117 344.25830078 C-118.56344779 317.47487212 -126.85297778 288.82164258 -130.21020508 259.60424805 C-130.30229248 258.91339111 -130.39437988 258.22253418 -130.48925781 257.51074219 C-133.56551591 231.99134327 -132.1163894 204.74087144 -127.21020508 179.60424805 C-127.0065332 178.55495117 -126.80286133 177.5056543 -126.59301758 176.42456055 C-119.90890593 143.33408187 -107.44364905 110.48071606 -88.21020508 82.60424805 C-87.7914209 81.99307129 -87.37263672 81.38189453 -86.94116211 80.75219727 C-81.68011988 73.12059834 -76.14128629 65.73007944 -70.21020508 58.60424805 C-69.78545898 58.08926758 -69.36071289 57.57428711 -68.9230957 57.04370117 C-58.11927662 43.984642 -46.55776524 32.0838865 -33.21020508 21.60424805 C-32.05694354 20.65250449 -30.90603558 19.69790422 -29.75708008 18.7409668 C-23.25765566 13.36406076 -16.63155345 8.34163919 -9.52270508 3.79174805 C-8.85150635 3.35290283 -8.18030762 2.91405762 -7.48876953 2.46191406 C-2.73652123 -0.48999237 -2.73652123 -0.48999237 0 0 Z " fill="#D66029" transform="translate(162.210205078125,51.395751953125)"/>
<path d="M0 0 C23.97334775 -0.02332624 47.94669382 -0.04097782 71.92005062 -0.05181217 C83.05046403 -0.05697571 94.1808704 -0.06401952 105.3112793 -0.07543945 C115.00880216 -0.08538451 124.70631993 -0.091853 134.40384775 -0.09408849 C139.54197829 -0.0953959 144.68009426 -0.09848366 149.81822014 -0.10573006 C154.64849446 -0.11248747 159.47874812 -0.11461753 164.30902672 -0.11310768 C166.08725853 -0.11338414 167.86549098 -0.1153909 169.64371872 -0.11920547 C172.06063636 -0.12413838 174.47747467 -0.1229998 176.89439392 -0.12025452 C177.60741557 -0.12316736 178.32043721 -0.1260802 179.05506557 -0.12908131 C183.88587879 -0.11412121 183.88587879 -0.11412121 185 1 C185 14.86 185 28.72 185 43 C138.14 43 91.28 43 43 43 C43 65.77 43 88.54 43 112 C42.67 112 42.34 112 42 112 C42 88.57 42 65.14 42 41 C88.53 41 135.06 41 183 41 C183 28.13 183 15.26 183 2 C122.28 2 61.56 2 -1 2 C-0.67 1.34 -0.34 0.68 0 0 Z " fill="#431C0E" transform="translate(260,147)"/>
<path d="M0 0 C0.99 0 1.98 0 3 0 C3 13.53 3 27.06 3 41 C2.01 40.01 1.02 39.02 0 38 C0 37.34 0 36.68 0 36 C-0.66 36 -1.32 36 -2 36 C-3.4375 34.171875 -3.4375 34.171875 -5 31.75 C-5.515625 30.96109375 -6.03125 30.1721875 -6.5625 29.359375 C-7.82983586 27.27929114 -8.9519458 25.19688285 -10 23 C-10.66 23 -11.32 23 -12 23 C-12 22.34 -12 21.68 -12 21 C-12.66 21 -13.32 21 -14 21 C-17 15.25 -17 15.25 -17 13 C-15.5390625 11.7109375 -15.5390625 11.7109375 -13.625 10.375 C-12.99851563 9.92898437 -12.37203125 9.48296875 -11.7265625 9.0234375 C-10 8 -10 8 -8 8 C-8 7.34 -8 6.68 -8 6 C-6.68 5.67 -5.36 5.34 -4 5 C-4 4.34 -4 3.68 -4 3 C-2.68 2.67 -1.36 2.34 0 2 C0 1.34 0 0.68 0 0 Z " fill="#DC5E22" transform="translate(258,201)"/>
<path d="M0 0 C0.66 0 1.32 0 2 0 C2 62.37 2 124.74 2 189 C15.53 189 29.06 189 43 189 C43 171.18 43 153.36 43 135 C44.65 135.33 46.3 135.66 48 136 C47.34 136.33 46.68 136.66 46 137 C45.98969254 137.66176743 45.97938507 138.32353485 45.96876526 139.00535583 C45.86094051 145.86671313 45.74632391 152.72793266 45.62768555 159.58911133 C45.58425934 162.15288421 45.54259015 164.71668746 45.50268555 167.28051758 C45.44516853 170.95663628 45.38142137 174.63260099 45.31640625 178.30859375 C45.29969376 179.46274277 45.28298126 180.61689178 45.26576233 181.80601501 C45.24581711 182.86703934 45.22587189 183.92806366 45.20532227 185.02124023 C45.18977798 185.96055893 45.1742337 186.89987762 45.15821838 187.86766052 C45 190 45 190 44 191 C29.81 191 15.62 191 1 191 C0.67 127.97 0.34 64.94 0 0 Z " fill="#914623" transform="translate(259,272)"/>
<path d="M0 0 C9.219375 -0.020625 18.43875 -0.04125 27.9375 -0.0625 C32.30923462 -0.07615601 32.30923462 -0.07615601 36.76928711 -0.09008789 C39.06363885 -0.09300681 41.35799111 -0.09555543 43.65234375 -0.09765625 C44.85636841 -0.10277222 46.06039307 -0.10788818 47.30090332 -0.11315918 C48.4377356 -0.11328003 49.57456787 -0.11340088 50.74584961 -0.11352539 C51.73846298 -0.115746 52.73107635 -0.11796661 53.75376892 -0.12025452 C56 0 56 0 57 1 C57.09439978 3.26991887 57.11742226 5.54281967 57.11352539 7.81469727 C57.11367142 8.52685394 57.11381744 9.23901062 57.1139679 9.9727478 C57.1132687 12.33733112 57.10547606 14.70183661 57.09765625 17.06640625 C57.09579209 18.70165463 57.09436818 20.33690357 57.09336853 21.97215271 C57.08954318 26.28434785 57.07971275 30.59650952 57.06866455 34.90869141 C57.05665627 40.0781968 57.05204827 45.24771336 57.04621124 50.4172287 C57.036501 58.27817577 57.01734458 66.13904935 57 74 C38.19 74 19.38 74 0 74 C0 49.58 0 25.16 0 0 Z M1 2 C1 25.1 1 48.2 1 72 C18.82 72 36.64 72 55 72 C55 48.9 55 25.8 55 2 C52.57517046 0.78758523 51.0314159 0.8731203 48.32250977 0.87060547 C47.35132706 0.86745331 46.38014435 0.86430115 45.37953186 0.86105347 C44.32745041 0.8630777 43.27536896 0.86510193 42.19140625 0.8671875 C40.57491432 0.86575241 40.57491432 0.86575241 38.92576599 0.86428833 C36.64346254 0.86360691 34.36115716 0.86545856 32.07885742 0.86962891 C28.58052216 0.87497247 25.0823156 0.86968529 21.58398438 0.86328125 C19.36979138 0.86394214 17.15559847 0.86522353 14.94140625 0.8671875 C13.89134903 0.86516327 12.84129181 0.86313904 11.75941467 0.86105347 C10.29791237 0.86578171 10.29791237 0.86578171 8.80688477 0.87060547 C7.94909927 0.87140106 7.09131378 0.87219666 6.20753479 0.87301636 C3.82344242 0.91372753 3.82344242 0.91372753 1 2 Z " fill="#37150B" transform="translate(235,61)"/>
<path d="M0 0 C0.66 0 1.32 0 2 0 C14.91736039 34.38589254 23.4841726 68.67640749 23.3125 105.5625 C23.31067719 106.38460968 23.30885437 107.20671936 23.30697632 108.05374146 C23.21090546 133.96189391 20.37650938 160.6420287 11 185 C10.67 185 10.34 185 10 185 C10.58857228 179.55115563 11.53255951 174.41655333 12.9375 169.125 C14.48139071 163.11144184 15.94633586 157.12264298 17 151 C17.17402344 149.99324219 17.34804688 148.98648438 17.52734375 147.94921875 C20.45012168 129.45251463 20.28644228 110.67664584 20 92 C19.98743164 91.16581543 19.97486328 90.33163086 19.96191406 89.47216797 C19.36620674 60.98155346 12.42965846 31.52570127 0.953125 5.49609375 C0 3 0 3 0 0 Z " fill="#D35F29" transform="translate(545,175)"/>
<path d="M0 0 C0.33 0 0.66 0 1 0 C1.80903975 5.39714674 -0.98243871 8.94661843 -3.75 13.3125 C-4.24226074 14.10213135 -4.73452148 14.8917627 -5.24169922 15.70532227 C-12.90997428 27.81267925 -21.7965442 39.03149788 -31 50 C-31.90643118 51.09359986 -32.812672 52.18735751 -33.71875 53.28125 C-41.29848159 62.39026008 -49.10517145 70.43267846 -58.36328125 77.859375 C-60.53588668 79.62320874 -62.61850575 81.43076572 -64.6875 83.3125 C-74.03299143 91.52060911 -84.21471975 98.72339492 -94.75 105.3125 C-95.51231934 105.79879883 -96.27463867 106.28509766 -97.06005859 106.78613281 C-97.77758301 107.2240918 -98.49510742 107.66205078 -99.234375 108.11328125 C-99.86569336 108.50298096 -100.49701172 108.89268066 -101.14746094 109.29418945 C-103.46940018 110.17883973 -104.69435029 109.80736019 -107 109 C-105.34677734 108.01773438 -105.34677734 108.01773438 -103.66015625 107.015625 C-95.51149128 102.13040804 -87.50917201 97.11220643 -79.75 91.625 C-79.06043213 91.13805664 -78.37086426 90.65111328 -77.66040039 90.14941406 C-74.54697604 87.92166242 -71.54336024 85.64577259 -68.640625 83.1484375 C-66 81 -66 81 -64 81 C-64 80.34 -64 79.68 -64 79 C-62.20703125 77.44921875 -62.20703125 77.44921875 -59.8125 75.6875 C-56.24889619 72.98847192 -53.08905775 70.24351064 -50 67 C-48.54237935 65.56177734 -47.08396471 64.12435919 -45.625 62.6875 C-41.55187306 58.60766281 -37.72464557 54.39758574 -34 50 C-33.26265625 49.15179688 -32.5253125 48.30359375 -31.765625 47.4296875 C-21.40159213 35.3163115 -12.42409056 22.41536084 -4.83984375 8.390625 C-3.29374649 5.54134172 -1.75352424 2.72654807 0 0 Z " fill="#D76028" transform="translate(535,405)"/>
<path d="M0 0 C7.0218005 0.5066543 12.92878575 2.08386364 19.5 4.5625 C20.46341309 4.92110107 21.42682617 5.27970215 22.41943359 5.64916992 C53.34346932 17.36157802 84.79169675 35.09491167 108 59 C107.505 59.99 107.505 59.99 107 61 C106.16339844 60.26136719 105.32679688 59.52273437 104.46484375 58.76171875 C73.79987303 31.92819673 38.88714916 13.07858421 0 1 C0 0.67 0 0.34 0 0 Z " fill="#D66029" transform="translate(373,24)"/>
<path d="M0 0 C4.38579852 0.43753809 6.78349092 3.36931578 9.6875 6.375 C10.21786865 6.91592285 10.7482373 7.4568457 11.29467773 8.01416016 C16.19912299 13.08201298 20.64854302 18.45226618 25 24 C25.88157781 25.09214363 26.76444681 26.18324596 27.6484375 27.2734375 C60.79343192 68.41109054 60.79343192 68.41109054 60 83 C56.77072014 79.13732442 54.71031905 74.70704645 52.4375 70.25 C39.36391861 45.11826102 22.31635394 22.67544646 1.94921875 2.9765625 C0 1 0 1 0 0 Z " fill="#D76028" transform="translate(482,86)"/>
<path d="M0 0 C2.475 0.495 2.475 0.495 5 1 C5.33 1.66 5.66 2.32 6 3 C5.01 3 4.02 3 3 3 C2.97684025 14.01353637 2.95906634 25.02706696 2.94818783 36.04062271 C2.94296697 41.15453196 2.93588374 46.26842455 2.92456055 51.38232422 C2.91370342 56.31655796 2.90771715 61.25077568 2.90512276 66.18502045 C2.90327362 68.06849164 2.89966278 69.95196195 2.89426994 71.83542633 C2.88702207 74.47135826 2.88601065 77.10722379 2.88647461 79.74316406 C2.88287933 80.52359573 2.87928406 81.3040274 2.87557983 82.10810852 C2.84721021 86.12868267 2.84721021 86.12868267 3.63251591 90.04424667 C4 92 4 92 2 95 C1.34 95 0.68 95 0 95 C0 63.65 0 32.3 0 0 Z " fill="#934624" transform="translate(302,307)"/>
<path d="M0 0 C3.27930458 0.00317857 6.55771861 -0.0204936 9.83691406 -0.0456543 C23.04946669 -0.08316253 35.65566309 0.90837789 48.64941406 3.31567383 C48.64941406 3.64567383 48.64941406 3.97567383 48.64941406 4.31567383 C46.69096527 4.17139939 44.73266155 4.02515545 42.77441406 3.87817383 C41.68386719 3.79696289 40.59332031 3.71575195 39.46972656 3.63208008 C36.64781471 3.39836345 33.84751368 3.1180355 31.03417969 2.80859375 C25.9050422 2.29466203 20.82506019 2.13898998 15.67285156 2.11254883 C14.75275803 2.10553452 13.83266449 2.0985202 12.88468933 2.09129333 C9.93121387 2.07388673 6.97793894 2.06744099 4.02441406 2.06567383 C3.01530975 2.06499908 2.00620544 2.06432434 0.96652222 2.06362915 C-19.4789954 2.08536695 -38.60531428 3.77288229 -58.4909668 8.77734375 C-59.77692749 9.09795776 -59.77692749 9.09795776 -61.08886719 9.42504883 C-61.84208252 9.62066406 -62.59529785 9.8162793 -63.37133789 10.01782227 C-65.35058594 10.31567383 -65.35058594 10.31567383 -68.35058594 9.31567383 C-67.69058594 9.31567383 -67.03058594 9.31567383 -66.35058594 9.31567383 C-66.35058594 8.65567383 -66.35058594 7.99567383 -66.35058594 7.31567383 C-63.1486469 6.49670374 -59.93820599 5.71658478 -56.72558594 4.94067383 C-55.860625 4.71895508 -54.99566406 4.49723633 -54.10449219 4.26879883 C-36.4542288 0.07223271 -18.04685802 -0.03643921 0 0 Z " fill="#CE612E" transform="translate(296.3505859375,13.684326171875)"/>
<path d="M0 0 C4.93990794 4.17161891 9.68540645 8.48842958 14.375 12.9375 C27.43332598 25.18773369 42.03590923 35.22954725 57.42578125 44.34375 C59.61666911 45.75336526 61.27507801 47.06902931 63 49 C57.00909592 48.61073365 53.22191397 45.87948337 48.4375 42.5625 C47.6431958 42.02117432 46.8488916 41.47984863 46.03051758 40.92211914 C34.46021759 32.96863169 23.57687955 24.2242807 13 15 C12.4323291 14.50757813 11.8646582 14.01515625 11.27978516 13.5078125 C9.59315798 12.03695548 7.9196209 10.5526134 6.25 9.0625 C5.26515625 8.18722656 4.2803125 7.31195313 3.265625 6.41015625 C1.00011442 4.00012172 0.59995731 3.09582875 0 0 Z " fill="#D76028" transform="translate(106,465)"/>
<path d="M0 0 C1.10131256 0.00141495 2.20262512 0.0028299 3.33731079 0.00428772 C6.84208942 0.00986873 10.3468033 0.02241779 13.8515625 0.03515625 C16.23307199 0.0401737 18.61458249 0.04473618 20.99609375 0.04882812 C26.82293862 0.05983194 32.64974593 0.07655118 38.4765625 0.09765625 C38.4765625 1.08765625 38.4765625 2.07765625 38.4765625 3.09765625 C37.8165625 3.09765625 37.1565625 3.09765625 36.4765625 3.09765625 C36.59486622 9.00599496 36.71911875 14.91416736 36.84887695 20.82226562 C36.89217894 22.83199668 36.93385738 24.8417634 36.97387695 26.8515625 C37.03169415 29.74099473 37.09535574 32.63024823 37.16015625 35.51953125 C37.17686874 36.41758484 37.19358124 37.31563843 37.21080017 38.24090576 C37.240718 39.50175995 37.240718 39.50175995 37.27124023 40.78808594 C37.29455666 41.8939505 37.29455666 41.8939505 37.31834412 43.02215576 C37.48015398 45.14476911 37.90066398 47.05178881 38.4765625 49.09765625 C37.8165625 49.09765625 37.1565625 49.09765625 36.4765625 49.09765625 C36.4765625 57.67765625 36.4765625 66.25765625 36.4765625 75.09765625 C36.1465625 75.09765625 35.8165625 75.09765625 35.4765625 75.09765625 C34.9815625 39.45765625 34.9815625 39.45765625 34.4765625 3.09765625 C17.3165625 2.76765625 0.1565625 2.43765625 -17.5234375 2.09765625 C-17.5234375 1.76765625 -17.5234375 1.43765625 -17.5234375 1.09765625 C-11.69125254 -0.16583809 -5.93407518 -0.02881984 0 0 Z " fill="#C45E2E" transform="translate(256.5234375,58.90234375)"/>
<path d="M0 0 C2.76062954 2.63514638 5.00025201 5.27173226 7.125 8.4375 C13.56218984 17.77692714 20.39603852 26.62830508 28.1875 34.87890625 C29.87767742 36.85685094 30.96651308 38.62620973 32 41 C27.93189329 40.49261921 26.53482162 38.6509051 24.0625 35.5 C23.28390625 34.51257813 22.5053125 33.52515625 21.703125 32.5078125 C20.80151336 31.33898111 19.90051799 30.16967419 19 29 C17.91148938 27.60153833 16.82294606 26.20310212 15.734375 24.8046875 C0 4.49631393 0 4.49631393 0 0 Z " fill="#D66029" transform="translate(73,423)"/>
<path d="M0 0 C-2.81729774 2.81729774 -6.26081735 3.66786861 -9.9375 5 C-17.9128677 7.97389348 -25.3502708 11.61192913 -32.80444336 15.7109375 C-33.55733643 16.1234375 -34.31022949 16.5359375 -35.0859375 16.9609375 C-36.0766626 17.51467041 -36.0766626 17.51467041 -37.08740234 18.07958984 C-39.0432323 19.02080492 -40.88173311 19.55042068 -43 20 C-43 19.34 -43 18.68 -43 18 C-33.76662091 12.88110176 -24.43733443 8.14447884 -14.75 3.9375 C-13.85772705 3.54377197 -12.9654541 3.15004395 -12.04614258 2.74438477 C-11.20075928 2.38401123 -10.35537598 2.0236377 -9.484375 1.65234375 C-8.36627441 1.17269165 -8.36627441 1.17269165 -7.22558594 0.68334961 C-4.71904093 -0.08626639 -2.60733979 -0.12130496 0 0 Z " fill="#D46029" transform="translate(208,30)"/>
<path d="M0 0 C-6.2306901 2.96826868 -12.61625306 4.581828 -19.3125 6.1875 C-20.38951172 6.46013672 -21.46652344 6.73277344 -22.57617188 7.01367188 C-29.17124223 8.60751383 -35.21771124 9.38508719 -42 9 C-38.51617016 6.67744677 -35.47520639 6.28985755 -31.4375 5.6875 C-24.07041699 4.512353 -17.01458934 2.74650543 -9.89038086 0.5378418 C-6.15512395 -0.58142644 -3.72392239 -1.17115481 0 0 Z " fill="#D66028" transform="translate(382,536)"/>
<path d="M0 0 C1.43790109 3.79502378 0.52124675 5.97541514 -0.984375 9.6484375 C-1.42523437 10.73640625 -1.86609375 11.824375 -2.3203125 12.9453125 C-2.79210937 14.07710938 -3.26390625 15.20890625 -3.75 16.375 C-4.20632813 17.4990625 -4.66265625 18.623125 -5.1328125 19.78125 C-9.70612388 30.96339285 -9.70612388 30.96339285 -12 35 C-13.485 35.495 -13.485 35.495 -15 36 C-13.33620623 30.52558178 -11.00835869 25.43731008 -8.625 20.25 C-5.55970017 13.56764637 -2.67097095 6.85042721 0 0 Z " fill="#D55F28" transform="translate(552,367)"/>
<path d="M0 0 C3.34790291 0.59531372 6.34134272 1.43983037 9.5 2.6875 C18.47419592 6.04199254 27.77621651 8.43619665 37 11 C37 11.33 37 11.66 37 12 C31.73747914 12.23611984 27.72538706 11.5194462 22.75390625 9.8125 C22.09792953 9.59053955 21.44195282 9.3685791 20.76609802 9.13989258 C18.69469857 8.43648181 16.62869049 7.71854915 14.5625 7 C13.14942065 6.51725594 11.73601166 6.03547563 10.32226562 5.5546875 C6.87763055 4.3809046 3.43766859 3.19405394 0 2 C0 1.34 0 0.68 0 0 Z " fill="#D66029" transform="translate(201,529)"/>
<path d="M0 0 C0.99 0 1.98 0 3 0 C3 13.53 3 27.06 3 41 C2.01 40.01 1.02 39.02 0 38 C0 37.34 0 36.68 0 36 C-0.66 36 -1.32 36 -2 36 C-2.495 34.515 -2.495 34.515 -3 33 C-1.35 33.66 0.3 34.32 2 35 C1.91621094 33.69546875 1.83242188 32.3909375 1.74609375 31.046875 C1.18001972 21.5803058 0.75396197 12.43154943 2 3 C0.68 2.67 -0.64 2.34 -2 2 C-1.34 2 -0.68 2 0 2 C0 1.34 0 0.68 0 0 Z " fill="#B8592D" transform="translate(258,201)"/>
<path d="M0 0 C-5.86392539 3.15749829 -12.25532607 4.65021598 -18.6875 6.1875 C-19.44611328 6.37763672 -20.20472656 6.56777344 -20.98632812 6.76367188 C-26.64705245 8.11764918 -26.64705245 8.11764918 -30 7 C-29.34 7 -28.68 7 -28 7 C-28 6.34 -28 5.68 -28 5 C-24.46082426 4.15584238 -20.91830859 3.32662306 -17.375 2.5 C-16.37597656 2.26152344 -15.37695312 2.02304687 -14.34765625 1.77734375 C-9.48858446 0.65106883 -5.02675656 -0.34312331 0 0 Z " fill="#D65F27" transform="translate(258,16)"/>
<path d="M0 0 C5.1163647 1.55927305 9.81556365 3.69547842 14.625 6 C15.75035156 6.53367187 15.75035156 6.53367187 16.8984375 7.078125 C20.28270689 8.68625301 23.65212314 10.31721953 27 12 C23.29923887 13.37707752 21.36107068 12.61404048 17.83203125 11.015625 C16.85685547 10.57476563 15.88167969 10.13390625 14.87695312 9.6796875 C13.36004883 8.97199219 13.36004883 8.97199219 11.8125 8.25 C10.78962891 7.79367187 9.76675781 7.33734375 8.71289062 6.8671875 C3.07864277 4.27999472 3.07864277 4.27999472 1 3 C0.67 2.01 0.34 1.02 0 0 Z " fill="#D66029" transform="translate(173,516)"/>
<path d="M0 0 C7.78961124 -0.46530864 14.52678392 0.84278299 22 3 C22 3.66 22 4.32 22 5 C22.99 5.33 23.98 5.66 25 6 C19.43670254 5.29058623 14.02851955 4.18398149 8.5625 2.9375 C7.73556641 2.75123047 6.90863281 2.56496094 6.05664062 2.37304688 C4.03720996 1.9177995 2.01852613 1.45924139 0 1 C0 0.67 0 0.34 0 0 Z " fill="#D35F29" transform="translate(347,18)"/>
<path d="M0 0 C-2.48262432 2.48262432 -4.61775287 3.07286975 -7.9375 4.1875 C-8.99839844 4.55230469 -10.05929688 4.91710937 -11.15234375 5.29296875 C-14 6 -14 6 -17 5 C-16 3 -16 3 -13.92578125 2.1484375 C-9.17052631 0.74105263 -5.01830661 -0.3961821 0 0 Z " fill="#D56029" transform="translate(226,24)"/>
<path d="M0 0 C6.03748977 0.80499864 12.01270113 1.88482498 18 3 C18 3.33 18 3.66 18 4 C7.29100529 4.38095238 7.29100529 4.38095238 2 2 C1.34 1.34 0.68 0.68 0 0 Z " fill="#D5602A" transform="translate(241,541)"/>
<path d="M0 0 C3.29078593 2.79716804 5.06305458 6.19528578 7 10 C6.67 10.66 6.34 11.32 6 12 C1.6409923 8.51279384 1.05447817 5.27239085 0 0 Z " fill="#D76029" transform="translate(65,409)"/>
<path d="M0 0 C0.66 0 1.32 0 2 0 C0.91108001 3.26675996 0.15148744 3.95793848 -2.4375 6.0625 C-4.38553905 7.66078674 -6.21573944 9.21573944 -8 11 C-8.33 9.68 -8.66 8.36 -9 7 C-7.87926138 6.16094435 -6.75325453 5.32892169 -5.625 4.5 C-4.99851563 4.0359375 -4.37203125 3.571875 -3.7265625 3.09375 C-2 2 -2 2 0 2 C0 1.34 0 0.68 0 0 Z " fill="#B75629" transform="translate(250,207)"/>
<path d="M0 0 C4.875 1.875 4.875 1.875 6 3 C6.04063832 4.66617115 6.042721 6.33388095 6 8 C4.5 6.625 4.5 6.625 3 5 C3 4.34 3 3.68 3 3 C2.34 3 1.68 3 1 3 C0.67 2.01 0.34 1.02 0 0 Z " fill="#A65028" transform="translate(255,234)"/>
<path d="M0 0 C0.66 0 1.32 0 2 0 C1 2 0 4 -1 6 C-1.99 6 -2.98 6 -4 6 C-4 5.01 -4 4.02 -4 3 C-2.68 2.67 -1.36 2.34 0 2 C0 1.34 0 0.68 0 0 Z " fill="#2E140B" transform="translate(186,203)"/>
</svg>
